<svg xmlns="http://www.w3.org/2000/svg" xmlns:xlink="http://www.w3.org/1999/xlink" version="1.1" enable-background="new 0 0 512 512" width="512" height="512"><rect id="backgroundrect" width="100%" height="100%" x="0" y="0" fill="none" stroke="none"/>
  
<g class="currentLayer" style=""><title>Layer 1</title><g id="svg_1" class="" fill-opacity="1" fill="#b1d234">
    <path d="M495,467.5513513803482 L377.2,349.7513513803482 c29.2,-35.6 46.8,-81.2 46.8,-130.9 C424,104.8513513803482 331.5,12.351351380348206 217.5,12.351351380348206 C103.4,12.351351380348206 11,104.8513513803482 11,218.8513513803482 S103.4,425.3513513803482 217.5,425.3513513803482 c49.7,0 95.2,-17.5 130.8,-46.7 L466.1,496.3513513803482 c8,8 20.9,8 28.9,0 C503,488.4513513803482 503,475.4513513803482 495,467.5513513803482 zM217.5,384.2513513803482 C126.2,384.2513513803482 52,310.0513513803482 52,218.8513513803482 S126.2,53.351351380348206 217.5,53.351351380348206 C308.7,53.351351380348206 383,127.6513513803482 383,218.8513513803482 S308.7,384.2513513803482 217.5,384.2513513803482 z" id="svg_2" fill="#b1d234"/>
  </g></g></svg>